<svg xmlns="http://www.w3.org/2000/svg" viewBox="0 0 512 512">
  <rect width="512" height="512" fill="#05060a"/>
  <circle cx="256" cy="256" r="180" fill="none" stroke="#1a2a3a" stroke-width="2"/>
  <circle cx="256" cy="256" r="120" fill="none" stroke="#1a2a3a" stroke-width="1"/>
  <!-- Main star -->
  <circle cx="256" cy="256" r="8" fill="#4fa"/>
  <!-- Surrounding stars -->
  <circle cx="180" cy="180" r="4" fill="#fff" opacity="0.8"/>
  <circle cx="332" cy="180" r="3" fill="#fff" opacity="0.6"/>
  <circle cx="180" cy="332" r="3" fill="#fff" opacity="0.7"/>
  <circle cx="332" cy="332" r="4" fill="#fff" opacity="0.8"/>
  <circle cx="256" cy="140" r="3" fill="#38bdf8" opacity="0.9"/>
  <circle cx="256" cy="372" r="3" fill="#a3e635" opacity="0.9"/>
  <circle cx="140" cy="256" r="2" fill="#fff" opacity="0.5"/>
  <circle cx="372" cy="256" r="2" fill="#fff" opacity="0.5"/>
  <!-- Small background stars -->
  <circle cx="120" cy="120" r="1.5" fill="#fff" opacity="0.4"/>
  <circle cx="392" cy="120" r="1.5" fill="#fff" opacity="0.4"/>
  <circle cx="120" cy="392" r="1.5" fill="#fff" opacity="0.4"/>
  <circle cx="392" cy="392" r="1.5" fill="#fff" opacity="0.4"/>
  <circle cx="200" cy="100" r="1" fill="#fff" opacity="0.3"/>
  <circle cx="312" cy="100" r="1" fill="#fff" opacity="0.3"/>
  <circle cx="100" cy="200" r="1" fill="#fff" opacity="0.3"/>
  <circle cx="100" cy="312" r="1" fill="#fff" opacity="0.3"/>
  <circle cx="412" cy="200" r="1" fill="#fff" opacity="0.3"/>
  <circle cx="412" cy="312" r="1" fill="#fff" opacity="0.3"/>
  <circle cx="200" cy="412" r="1" fill="#fff" opacity="0.3"/>
  <circle cx="312" cy="412" r="1" fill="#fff" opacity="0.3"/>
</svg>
